<svg width="288" height="45" viewBox="0 0 288 45" fill="none" xmlns="http://www.w3.org/2000/svg">
<g clip-path="url(#clip0_53_941)">
<path fill-rule="evenodd" clip-rule="evenodd" d="M121.54 18.0161C123.746 18.0161 125.428 18.8199 126.581 20.4185V18.5259H130.969V37.4878C130.969 39.1599 130.621 40.5476 129.925 41.6558C129.228 42.7639 128.282 43.5978 127.081 44.1567C125.879 44.7157 124.511 44.9946 122.981 44.9946C120.716 44.9946 118.819 44.4656 117.289 43.4165C115.759 42.3622 114.831 40.7383 114.512 38.5464H118.936C119.074 39.5074 119.5 40.2434 120.22 40.7583C120.941 41.2732 121.814 41.5278 122.913 41.5278C124.011 41.5278 124.893 41.2293 125.57 40.6362C126.242 40.0429 126.581 39.0125 126.581 37.5513V34.4526C126.556 34.4869 126.536 34.5258 126.511 34.5552C125.276 36.1684 123.619 36.9731 121.54 36.9731C119.98 36.9731 118.641 36.5906 117.509 35.8257C116.381 35.0608 115.508 33.9769 114.905 32.5698C114.302 31.1675 113.998 29.4803 113.998 27.5142C113.998 24.4494 114.68 22.1002 116.038 20.4673C117.396 18.8344 119.333 18.0161 121.54 18.0161ZM122.535 21.644C121.236 21.6441 120.24 22.1496 119.553 23.1548C118.867 24.16 118.524 25.6363 118.524 27.5093C118.524 29.382 118.867 30.8235 119.553 31.8286C120.24 32.8387 121.231 33.3393 122.535 33.3394C123.839 33.3394 124.84 32.8436 125.536 31.8481V31.8433C126.232 30.8479 126.581 29.3773 126.581 27.5044C126.581 25.6313 126.222 24.1845 125.516 23.1694C124.81 22.1544 123.834 21.644 122.535 21.644Z" fill="url(#paint0_linear_53_941)"/>
<path d="M65.5212 14.3188V18.5356H69.3953V21.9292H65.5212V30.8091C65.5212 31.7653 65.7178 32.5013 66.1052 33.0015C66.4926 33.5064 67.2917 33.7563 68.5027 33.7563H69.3269V36.978C69.0964 37.1153 68.743 37.2238 68.2625 37.3022C67.782 37.3856 67.2424 37.4243 66.6492 37.4243C64.7712 37.4243 63.3834 36.8995 62.4812 35.8452C61.5791 34.7959 61.1277 33.2415 61.1277 31.1821V21.9243H58.7644V18.5308H61.1277V14.314H65.5164L65.5212 14.3188Z" fill="url(#paint1_linear_53_941)"/>
<path d="M178.146 14.3188V18.5356H182.02V21.9292H178.146V30.8091C178.146 31.7653 178.343 32.5013 178.73 33.0015C179.118 33.5064 179.917 33.7563 181.128 33.7563H181.952V36.978C181.721 37.1153 181.368 37.2238 180.887 37.3022C180.407 37.3856 179.867 37.4243 179.274 37.4243C177.396 37.4243 176.008 36.8994 175.106 35.8452C174.204 34.7959 173.753 33.2415 173.753 31.1821V21.9243H171.385V18.5308H173.753V14.314H178.141L178.146 14.3188Z" fill="url(#paint2_linear_53_941)"/>
<path fill-rule="evenodd" clip-rule="evenodd" d="M231.1 36.9097H226.712V34.8403C226.329 35.3944 225.888 35.8699 225.392 36.2573C224.397 37.037 223.225 37.4243 221.877 37.4243C220.298 37.4243 218.929 37.0321 217.762 36.2573C216.595 35.4777 215.698 34.3649 215.07 32.9136C214.442 31.4621 214.129 29.7452 214.129 27.7544C214.129 24.6213 214.83 22.2185 216.237 20.5366C217.644 18.8547 219.523 18.0161 221.877 18.0161C223.912 18.0162 225.525 18.8499 226.712 20.5171V12.2202H231.1V36.9097ZM222.666 21.6548C221.366 21.6548 220.371 22.1749 219.684 23.2144C218.998 24.2539 218.655 25.8326 218.655 27.7544C218.655 29.6766 219.003 31.163 219.699 32.2124C220.395 33.2666 221.362 33.7905 222.666 33.7905C223.97 33.7905 224.97 33.2762 225.667 32.2466V32.2515C226.363 31.2217 226.712 29.7256 226.712 27.7593C226.712 25.7932 226.353 24.2832 225.647 23.2339C224.941 22.1796 223.965 21.6548 222.666 21.6548Z" fill="url(#paint3_linear_53_941)"/>
<path fill-rule="evenodd" clip-rule="evenodd" d="M261.61 18.0161C263.415 18.0161 264.974 18.4083 266.288 19.1978L266.283 19.2026C267.597 19.9921 268.607 21.1097 269.318 22.561C270.029 24.0125 270.383 25.6949 270.383 27.7544C270.383 29.8137 270.024 31.559 269.303 33.0005C268.583 34.4372 267.568 35.5364 266.254 36.2915C264.94 37.0466 263.439 37.4243 261.61 37.4243C259.781 37.4243 258.212 37.0319 256.898 36.2573C255.584 35.4777 254.568 34.3641 253.862 32.9126C253.151 31.4613 252.799 29.8333 252.799 27.7544C252.799 25.6755 253.156 23.9099 253.877 22.4585C254.598 21.007 255.623 19.9031 256.947 19.1479C258.271 18.3929 259.806 18.0161 261.61 18.0161ZM261.61 21.6489C260.217 21.6489 259.153 22.1689 258.423 23.2085C257.692 24.2481 257.324 25.8274 257.324 27.7495C257.324 29.6715 257.692 31.1572 258.423 32.2065C259.153 33.2608 260.242 33.7856 261.61 33.7856C262.978 33.7856 264.033 33.2656 264.763 32.2261C265.494 31.1866 265.861 29.7204 265.861 27.7544C265.861 25.7881 265.494 24.2774 264.763 23.228C264.033 22.1738 263.003 21.6489 261.61 21.6489Z" fill="url(#paint4_linear_53_941)"/>
<path fill-rule="evenodd" clip-rule="evenodd" d="M79.4382 18.0112C81.2229 18.0113 82.7629 18.4035 84.0671 19.1782C85.3663 19.953 86.3718 21.0513 87.0828 22.4683C87.7937 23.8853 88.1462 25.5918 88.1462 27.5776V28.6069H75.1814C75.2795 30.1368 75.6523 31.3483 76.2996 32.2407C77.0645 33.2949 78.1676 33.8198 79.6091 33.8198C80.6387 33.8198 81.5018 33.5795 82.198 33.0991C82.8943 32.6235 83.3804 31.8875 83.655 30.9067H88.2839C87.7789 33.0298 86.759 34.6482 85.2146 35.7563C83.6749 36.8646 81.8059 37.4194 79.6091 37.4194C77.7804 37.4194 76.1918 37.027 74.8435 36.2524C73.495 35.4728 72.4598 34.3592 71.739 32.9077C71.0183 31.4564 70.6609 29.8284 70.6609 27.7495C70.6609 25.6705 71.0183 23.905 71.739 22.4536C72.4598 21.0022 73.4845 19.8982 74.8083 19.1431C76.1323 18.3879 77.6533 18.0112 79.4382 18.0112ZM79.4382 21.6147C78.0457 21.6147 76.9814 22.1446 76.2507 23.1938C75.7702 23.8803 75.4516 24.7732 75.2849 25.8667H83.5613C83.3995 24.7683 83.0809 23.8706 82.5906 23.1743C81.86 22.1349 80.8306 21.6149 79.4382 21.6147Z" fill="url(#paint5_linear_53_941)"/>
<path fill-rule="evenodd" clip-rule="evenodd" d="M142.003 18.0112C143.787 18.0113 145.327 18.4035 146.632 19.1782C147.931 19.953 148.936 21.0512 149.647 22.4683C150.358 23.8854 150.712 25.5918 150.712 27.5776V28.6069H137.746C137.844 30.1367 138.217 31.3483 138.864 32.2407C139.629 33.295 140.733 33.8198 142.175 33.8198C143.204 33.8198 144.067 33.5796 144.763 33.0991C145.46 32.6235 145.945 31.8874 146.219 30.9067H150.848C150.343 33.0298 149.324 34.6481 147.779 35.7563C146.239 36.8645 144.371 37.4194 142.175 37.4194C140.346 37.4194 138.756 37.0271 137.408 36.2524C136.059 35.4728 135.024 34.3592 134.303 32.9077C133.583 31.4564 133.225 29.8284 133.225 27.7495C133.225 25.6706 133.583 23.905 134.303 22.4536C135.024 21.0022 136.05 19.8982 137.374 19.1431C138.698 18.3881 140.218 18.0112 142.003 18.0112ZM141.998 21.6147C140.605 21.6147 139.541 22.1445 138.81 23.1938C138.33 23.8803 138.011 24.7732 137.844 25.8667H146.122C145.96 24.7683 145.641 23.8706 145.15 23.1743C144.42 22.1349 143.39 21.6148 141.998 21.6147Z" fill="url(#paint6_linear_53_941)"/>
<path fill-rule="evenodd" clip-rule="evenodd" d="M242.098 18.0112C243.883 18.0112 245.423 18.4035 246.727 19.1782C248.027 19.953 249.033 21.0511 249.744 22.4683C250.455 23.8853 250.807 25.5918 250.807 27.5776V28.6069H237.843C237.941 30.1368 238.313 31.3483 238.961 32.2407C239.726 33.295 240.829 33.8198 242.27 33.8198C243.3 33.8198 244.163 33.5795 244.859 33.0991C245.555 32.6235 246.042 31.8875 246.316 30.9067H250.945C250.44 33.03 249.419 34.6481 247.875 35.7563C246.335 36.8645 244.467 37.4194 242.27 37.4194C240.442 37.4194 238.853 37.027 237.505 36.2524C236.156 35.4728 235.121 34.3592 234.4 32.9077C233.679 31.4563 233.321 29.8285 233.321 27.7495C233.321 25.6705 233.679 23.905 234.4 22.4536C235.121 21.0022 236.146 19.8982 237.469 19.1431C238.793 18.388 240.314 18.0113 242.098 18.0112ZM242.094 21.6147C240.701 21.6148 239.638 22.1447 238.907 23.1938C238.426 23.8803 238.107 24.7732 237.94 25.8667H246.218C246.056 24.7683 245.737 23.8706 245.247 23.1743C244.516 22.1348 243.486 21.6147 242.094 21.6147Z" fill="url(#paint7_linear_53_941)"/>
<path d="M279.288 17.7563C280.705 17.7564 281.97 17.986 283.093 18.4419C284.211 18.8979 285.142 19.6048 285.887 20.5659C286.628 21.527 287.079 22.7724 287.241 24.3022H282.852C282.671 23.1842 282.264 22.3844 281.636 21.9038C281.009 21.4233 280.165 21.1831 279.116 21.1831C278.248 21.1831 277.566 21.3797 277.076 21.7671C276.586 22.1593 276.341 22.6397 276.341 23.2085C276.341 23.8262 276.546 24.297 276.958 24.6157C277.37 24.9345 277.925 25.1794 278.621 25.3511C279.317 25.5226 280.077 25.6699 280.9 25.7974C281.719 25.9199 282.543 26.0866 283.367 26.2925C284.191 26.4984 284.946 26.7831 285.633 27.1509C286.319 27.5186 286.873 28.0242 287.295 28.6616C287.716 29.2991 287.927 30.1571 287.927 31.231C287.927 32.3929 287.594 33.4226 286.918 34.3149C286.241 35.2073 285.324 35.9036 284.157 36.4087C282.99 36.9138 281.631 37.1645 280.077 37.1646C277.816 37.1646 275.923 36.6349 274.403 35.5708C272.883 34.5116 271.961 32.8682 271.642 30.6519H276.031C276.188 31.6324 276.639 32.3976 277.385 32.9468C278.13 33.496 279.121 33.771 280.215 33.771C281.308 33.7709 282.131 33.5598 282.68 33.1382C283.23 32.7165 283.505 32.1722 283.505 31.5103C283.505 30.9121 283.298 30.4559 282.886 30.1372C282.475 29.8185 281.93 29.5783 281.259 29.4165C280.587 29.2547 279.841 29.1075 279.032 28.9702C278.218 28.8329 277.414 28.6712 276.615 28.4751C275.816 28.279 275.075 27.9943 274.403 27.6167C273.732 27.2392 273.187 26.7247 272.775 26.0728C272.363 25.4206 272.158 24.5568 272.158 23.4829C272.158 22.4778 272.422 21.546 272.947 20.688C273.472 19.83 274.261 19.1287 275.31 18.5796C276.36 18.0304 277.689 17.7563 279.288 17.7563Z" fill="url(#paint8_linear_53_941)"/>
<path d="M37.0613 36.9097H32.4324V13.5933H37.0613V36.9097Z" fill="url(#paint9_linear_53_941)"/>
<path d="M111.292 36.9097H106.903V18.5308H111.292V36.9097Z" fill="url(#paint10_linear_53_941)"/>
<path d="M193.466 29.981L194.167 32.5405L194.873 29.981L200.904 13.5933H205.533L196.756 36.9097H191.343L182.525 13.5933H187.429L193.466 29.981Z" fill="url(#paint11_linear_53_941)"/>
<path d="M211.913 36.9097H207.524V18.5308H211.913V36.9097Z" fill="url(#paint12_linear_53_941)"/>
<path d="M50.7712 18.0161C52.0068 18.0161 53.0857 18.2612 54.0125 18.7515H54.0076C54.9343 19.2418 55.6558 19.9818 56.1707 20.9624C56.6855 21.943 56.9402 23.1789 56.9402 24.6646V36.9038H52.5515V25.5571C52.5515 24.7139 52.4343 23.998 52.1941 23.4146C51.9538 22.831 51.5955 22.3943 51.115 22.0952C50.6345 21.7961 50.0166 21.6489 49.2615 21.6489C48.6682 21.6489 48.1239 21.7671 47.6335 22.0073C47.1432 22.2476 46.7258 22.5758 46.3826 23.0024C46.0394 23.429 45.7749 23.92 45.5935 24.479C45.4122 25.0378 45.3191 25.626 45.3191 26.2437V36.9087H40.9304V18.5308H45.3191V21.0269C45.8634 20.1246 46.5451 19.4176 47.3591 18.9224C48.3544 18.3195 49.5359 18.0162 50.7712 18.0161Z" fill="url(#paint13_linear_53_941)"/>
<path d="M95.3796 36.9048H90.991V12.2202H95.3796V36.9048Z" fill="url(#paint14_linear_53_941)"/>
<path d="M103.333 36.9048H98.9441V12.2202H103.333V36.9048Z" fill="url(#paint15_linear_53_941)"/>
<path d="M163.396 18.0161C164.632 18.0161 165.711 18.2612 166.637 18.7515L166.633 18.7466C167.559 19.2369 168.281 19.9769 168.796 20.9575C169.31 21.9382 169.565 23.174 169.565 24.6597V36.8989H165.177V25.5522C165.176 24.709 165.059 23.9931 164.819 23.4097C164.579 22.8261 164.221 22.3894 163.74 22.0903C163.259 21.7912 162.642 21.6441 161.886 21.644C161.293 21.644 160.749 21.7622 160.259 22.0024C159.768 22.2427 159.351 22.5709 159.008 22.9976C158.664 23.424 158.4 23.9144 158.219 24.4731C158.037 25.0321 157.944 25.621 157.944 26.2388V36.9038H153.555V18.5259H157.944V21.0269C158.488 20.1246 159.17 19.4176 159.984 18.9224C160.979 18.3195 162.161 18.0162 163.396 18.0161Z" fill="url(#paint16_linear_53_941)"/>
<path d="M108.538 11.8003C109.84 11.493 111.145 12.3 111.452 13.6021C111.759 14.904 110.953 16.2088 109.651 16.5161C108.349 16.8234 107.044 16.0164 106.737 14.7144C106.43 13.4125 107.236 12.1077 108.538 11.8003Z" fill="url(#paint17_linear_53_941)"/>
<path d="M209.716 11.729C211.053 11.729 212.138 12.814 212.138 14.1519C212.138 15.4897 211.053 16.5737 209.716 16.5737C208.378 16.5737 207.294 15.4896 207.294 14.1519C207.294 12.8141 208.378 11.7291 209.716 11.729Z" fill="url(#paint18_linear_53_941)"/>
<path d="M6.1882 10.999C7.74754 10.999 9.13522 11.98 9.655 13.4511L15.1277 28.9462C15.2749 29.3676 15.873 29.3725 16.03 28.9511L22.6648 10.999H28.9167L20.6882 33.3154C19.9084 35.4727 17.8687 36.9091 15.5739 36.9091C13.2792 36.9091 11.2346 35.4727 10.4597 33.3154L6.1882 21.458V36.9091H-0.000274385V10.999H6.1882Z" fill="#2EADF9"/>
<path d="M1.22531 1.22651C2.86069 -0.408818 5.5128 -0.408853 7.14816 1.22651C8.7834 2.86187 8.78345 5.51402 7.14816 7.14936C5.51283 8.78469 2.8607 8.78461 1.22531 7.14936C-0.410065 5.51398 -0.410065 2.86188 1.22531 1.22651Z" fill="#2EADF9"/>
</g>
<defs>
<linearGradient id="paint0_linear_53_941" x1="32.4324" y1="28.3618" x2="287.927" y2="28.3618" gradientUnits="userSpaceOnUse">
<stop stop-color="#E9F5FD"/>
<stop offset="1" stop-color="#2EADF9"/>
</linearGradient>
<linearGradient id="paint1_linear_53_941" x1="32.4324" y1="28.3618" x2="287.927" y2="28.3618" gradientUnits="userSpaceOnUse">
<stop stop-color="#E9F5FD"/>
<stop offset="1" stop-color="#2EADF9"/>
</linearGradient>
<linearGradient id="paint2_linear_53_941" x1="32.4324" y1="28.3618" x2="287.927" y2="28.3618" gradientUnits="userSpaceOnUse">
<stop stop-color="#E9F5FD"/>
<stop offset="1" stop-color="#2EADF9"/>
</linearGradient>
<linearGradient id="paint3_linear_53_941" x1="32.4324" y1="28.3618" x2="287.927" y2="28.3618" gradientUnits="userSpaceOnUse">
<stop stop-color="#E9F5FD"/>
<stop offset="1" stop-color="#2EADF9"/>
</linearGradient>
<linearGradient id="paint4_linear_53_941" x1="32.4324" y1="28.3618" x2="287.927" y2="28.3618" gradientUnits="userSpaceOnUse">
<stop stop-color="#E9F5FD"/>
<stop offset="1" stop-color="#2EADF9"/>
</linearGradient>
<linearGradient id="paint5_linear_53_941" x1="32.4324" y1="28.3618" x2="287.927" y2="28.3618" gradientUnits="userSpaceOnUse">
<stop stop-color="#E9F5FD"/>
<stop offset="1" stop-color="#2EADF9"/>
</linearGradient>
<linearGradient id="paint6_linear_53_941" x1="32.4324" y1="28.3618" x2="287.927" y2="28.3618" gradientUnits="userSpaceOnUse">
<stop stop-color="#E9F5FD"/>
<stop offset="1" stop-color="#2EADF9"/>
</linearGradient>
<linearGradient id="paint7_linear_53_941" x1="32.4324" y1="28.3618" x2="287.927" y2="28.3618" gradientUnits="userSpaceOnUse">
<stop stop-color="#E9F5FD"/>
<stop offset="1" stop-color="#2EADF9"/>
</linearGradient>
<linearGradient id="paint8_linear_53_941" x1="32.4324" y1="28.3618" x2="287.927" y2="28.3618" gradientUnits="userSpaceOnUse">
<stop stop-color="#E9F5FD"/>
<stop offset="1" stop-color="#2EADF9"/>
</linearGradient>
<linearGradient id="paint9_linear_53_941" x1="32.4324" y1="28.3618" x2="287.927" y2="28.3618" gradientUnits="userSpaceOnUse">
<stop stop-color="#E9F5FD"/>
<stop offset="1" stop-color="#2EADF9"/>
</linearGradient>
<linearGradient id="paint10_linear_53_941" x1="32.4324" y1="28.3618" x2="287.927" y2="28.3618" gradientUnits="userSpaceOnUse">
<stop stop-color="#E9F5FD"/>
<stop offset="1" stop-color="#2EADF9"/>
</linearGradient>
<linearGradient id="paint11_linear_53_941" x1="32.4324" y1="28.3618" x2="287.927" y2="28.3618" gradientUnits="userSpaceOnUse">
<stop stop-color="#E9F5FD"/>
<stop offset="1" stop-color="#2EADF9"/>
</linearGradient>
<linearGradient id="paint12_linear_53_941" x1="32.4324" y1="28.3618" x2="287.927" y2="28.3618" gradientUnits="userSpaceOnUse">
<stop stop-color="#E9F5FD"/>
<stop offset="1" stop-color="#2EADF9"/>
</linearGradient>
<linearGradient id="paint13_linear_53_941" x1="32.4324" y1="28.3618" x2="287.927" y2="28.3618" gradientUnits="userSpaceOnUse">
<stop stop-color="#E9F5FD"/>
<stop offset="1" stop-color="#2EADF9"/>
</linearGradient>
<linearGradient id="paint14_linear_53_941" x1="32.4324" y1="28.3618" x2="287.927" y2="28.3618" gradientUnits="userSpaceOnUse">
<stop stop-color="#E9F5FD"/>
<stop offset="1" stop-color="#2EADF9"/>
</linearGradient>
<linearGradient id="paint15_linear_53_941" x1="32.4324" y1="28.3618" x2="287.927" y2="28.3618" gradientUnits="userSpaceOnUse">
<stop stop-color="#E9F5FD"/>
<stop offset="1" stop-color="#2EADF9"/>
</linearGradient>
<linearGradient id="paint16_linear_53_941" x1="32.4324" y1="28.3618" x2="287.927" y2="28.3618" gradientUnits="userSpaceOnUse">
<stop stop-color="#E9F5FD"/>
<stop offset="1" stop-color="#2EADF9"/>
</linearGradient>
<linearGradient id="paint17_linear_53_941" x1="32.4324" y1="28.3618" x2="287.927" y2="28.3618" gradientUnits="userSpaceOnUse">
<stop stop-color="#E9F5FD"/>
<stop offset="1" stop-color="#2EADF9"/>
</linearGradient>
<linearGradient id="paint18_linear_53_941" x1="32.4324" y1="28.3618" x2="287.927" y2="28.3618" gradientUnits="userSpaceOnUse">
<stop stop-color="#E9F5FD"/>
<stop offset="1" stop-color="#2EADF9"/>
</linearGradient>
<clipPath id="clip0_53_941">
<rect width="287.932" height="45" fill="white"/>
</clipPath>
</defs>
</svg>
