<svg width="310" height="59" viewBox="0 0 310 59" fill="none" xmlns="http://www.w3.org/2000/svg">
<g clip-path="url(#clip0_1_349)">
<path fill-rule="evenodd" clip-rule="evenodd" d="M130.824 19.3922C133.199 19.3922 135.01 20.2574 136.25 21.978V19.9409H140.974V40.3513C140.974 42.1511 140.599 43.6448 139.849 44.8376C139.1 46.0304 138.081 46.928 136.788 47.5297C135.495 48.1314 134.022 48.4316 132.376 48.4316C129.937 48.4315 127.895 47.8621 126.248 46.7329C124.602 45.5981 123.603 43.8501 123.26 41.4907H128.022C128.169 42.5252 128.628 43.3174 129.404 43.8716C130.18 44.4258 131.12 44.6999 132.302 44.6999C133.484 44.6999 134.434 44.3786 135.162 43.7402C135.885 43.1016 136.25 41.9925 136.25 40.4196V37.0843C136.224 37.1212 136.202 37.163 136.175 37.1947C134.845 38.9311 133.062 39.7973 130.824 39.7973C129.146 39.7973 127.704 39.3856 126.485 38.5622C125.271 37.7389 124.332 36.5722 123.682 35.0576C123.033 33.5482 122.706 31.7322 122.706 29.6158C122.706 26.3169 123.44 23.7882 124.902 22.0306C126.364 20.273 128.449 19.3922 130.824 19.3922ZM131.895 23.2973C130.497 23.2973 129.425 23.8414 128.686 24.9234C127.947 26.0054 127.578 27.5945 127.578 29.6105C127.578 31.6263 127.947 33.1779 128.686 34.2598C129.425 35.347 130.491 35.8859 131.895 35.886C133.299 35.886 134.376 35.3523 135.125 34.2808V34.2756C135.875 33.2042 136.25 31.6212 136.25 29.6053C136.25 27.589 135.864 26.0317 135.104 24.9392C134.344 23.8466 133.294 23.2973 131.895 23.2973Z" fill="url(#paint0_linear_1_349)"/>
<path d="M70.5263 15.4125V19.9514H74.6962V23.6042H70.5263V33.1624C70.5263 34.1916 70.7379 34.9839 71.1549 35.5223C71.5718 36.0658 72.432 36.3348 73.7355 36.3348H74.6226V39.8026C74.3746 39.9504 73.9941 40.0671 73.4769 40.1516C72.9597 40.2413 72.3789 40.283 71.7404 40.283C69.7189 40.2829 68.2251 39.718 67.254 38.5832C66.283 37.4537 65.7971 35.7806 65.7971 33.5639V23.5989H63.2533V19.9462H65.7971V15.4072H70.521L70.5263 15.4125Z" fill="url(#paint1_linear_1_349)"/>
<path d="M191.755 15.4125V19.9514H195.925V23.6042H191.755V33.1624C191.755 34.1916 191.966 34.9839 192.383 35.5223C192.8 36.0658 193.66 36.3348 194.964 36.3348H195.851V39.8026C195.603 39.9504 195.222 40.0671 194.705 40.1516C194.188 40.2413 193.607 40.283 192.969 40.283C190.947 40.2829 189.453 39.718 188.482 38.5832C187.511 37.4537 187.025 35.7806 187.025 33.5639V23.5989H184.476V19.9462H187.025V15.4072H191.749L191.755 15.4125Z" fill="url(#paint2_linear_1_349)"/>
<path fill-rule="evenodd" clip-rule="evenodd" d="M248.754 39.729H244.03V37.5016C243.618 38.098 243.143 38.6099 242.61 39.0268C241.538 39.866 240.277 40.2829 238.826 40.283C237.126 40.283 235.653 39.8608 234.397 39.0268C233.141 38.1876 232.175 36.9899 231.499 35.4277C230.823 33.8653 230.486 32.0173 230.486 29.8744C230.486 26.5019 231.24 23.9156 232.755 22.1052C234.27 20.2948 236.292 19.3922 238.826 19.3922C241.016 19.3922 242.753 20.2897 244.03 22.0842V13.1536H248.754V39.729ZM239.675 23.3088C238.276 23.3089 237.205 23.8686 236.466 24.9875C235.727 26.1064 235.358 27.8057 235.358 29.8744C235.358 31.9434 235.732 33.5434 236.481 34.6729C237.231 35.8076 238.271 36.3715 239.675 36.3716C241.079 36.3716 242.156 35.8179 242.905 34.7097V34.715C243.655 33.6066 244.03 31.9962 244.03 29.8796C244.03 27.7633 243.644 26.138 242.884 25.0085C242.124 23.8737 241.074 23.3088 239.675 23.3088Z" fill="url(#paint3_linear_1_349)"/>
<path fill-rule="evenodd" clip-rule="evenodd" d="M281.594 19.3922C283.536 19.3922 285.215 19.8143 286.629 20.6641L286.624 20.6694C288.038 21.5191 289.126 22.7221 289.891 24.2843C290.656 25.8466 291.037 27.6575 291.037 29.8744C291.037 32.0909 290.651 33.9696 289.875 35.5212C289.099 37.0677 288.007 38.2508 286.592 39.0636C285.178 39.8764 283.563 40.283 281.594 40.283C279.626 40.283 277.937 39.8605 276.522 39.0268C275.108 38.1876 274.014 36.9889 273.254 35.4266C272.489 33.8644 272.11 32.1121 272.109 29.8744C272.109 27.6366 272.494 25.7362 273.27 24.1739C274.046 22.6116 275.15 21.4233 276.575 20.6105C278 19.7978 279.652 19.3922 281.594 19.3922ZM281.594 23.3025C280.095 23.3025 278.95 23.8622 278.163 24.9812C277.377 26.1002 276.981 27.8001 276.981 29.8691C276.981 31.9379 277.377 33.5372 278.163 34.6666C278.95 35.8014 280.122 36.3663 281.594 36.3663C283.067 36.3663 284.202 35.8066 284.988 34.6876C285.775 33.5687 286.17 31.9906 286.17 29.8744C286.17 27.7579 285.775 26.1318 284.988 25.0022C284.202 23.8674 283.093 23.3025 281.594 23.3025Z" fill="url(#paint4_linear_1_349)"/>
<path fill-rule="evenodd" clip-rule="evenodd" d="M85.5064 19.3869C87.4274 19.387 89.085 19.8092 90.4889 20.6431C91.8873 21.477 92.9696 22.6592 93.7348 24.1844C94.5001 25.7098 94.8796 27.5466 94.8796 29.6841V30.792H80.9243C81.0299 32.4388 81.4312 33.7428 82.1279 34.7034C82.9513 35.8381 84.1387 36.4031 85.6903 36.4031C86.7985 36.4031 87.7275 36.1444 88.4769 35.6274C89.2264 35.1154 89.7497 34.3231 90.0453 33.2675H95.0278C94.4842 35.5527 93.3863 37.2947 91.724 38.4876C90.0666 39.6804 88.0549 40.2777 85.6903 40.2777C83.7219 40.2777 82.012 39.8553 80.5606 39.0216C79.1092 38.1823 77.9949 36.9837 77.219 35.4213C76.4432 33.8591 76.0586 32.1068 76.0585 29.8691C76.0585 27.6313 76.4432 25.7309 77.219 24.1687C77.9949 22.6064 79.0978 21.4181 80.5228 20.6052C81.9479 19.7924 83.5851 19.3869 85.5064 19.3869ZM85.5064 23.2657C84.0074 23.2657 82.8618 23.836 82.0754 24.9654C81.5581 25.7044 81.2152 26.6654 81.0358 27.8425H89.9444C89.7702 26.6602 89.4273 25.6939 88.8995 24.9444C88.1131 23.8256 87.0051 23.2658 85.5064 23.2657Z" fill="url(#paint5_linear_1_349)"/>
<path fill-rule="evenodd" clip-rule="evenodd" d="M152.85 19.3869C154.771 19.387 156.429 19.8092 157.833 20.6431C159.231 21.477 160.313 22.6592 161.079 24.1844C161.844 25.7098 162.224 27.5466 162.224 29.6841V30.792H148.268C148.374 32.4387 148.775 33.7428 149.472 34.7034C150.295 35.8382 151.483 36.4031 153.035 36.4031C154.143 36.4031 155.072 36.1446 155.822 35.6274C156.571 35.1154 157.093 34.3231 157.389 33.2675H162.371C161.828 35.5528 160.73 37.2947 159.068 38.4876C157.41 39.6804 155.399 40.2776 153.035 40.2777C151.066 40.2777 149.356 39.8554 147.904 39.0216C146.453 38.1823 145.339 36.9837 144.563 35.4213C143.787 33.8591 143.402 32.1068 143.402 29.8691C143.402 27.6314 143.787 25.7309 144.563 24.1687C145.339 22.6063 146.442 21.4181 147.868 20.6052C149.293 19.7926 150.929 19.3869 152.85 19.3869ZM152.845 23.2657C151.346 23.2657 150.2 23.8359 149.414 24.9654C148.897 25.7044 148.554 26.6654 148.374 27.8425H157.284C157.11 26.6602 156.766 25.6939 156.238 24.9444C155.452 23.8256 154.344 23.2658 152.845 23.2657Z" fill="url(#paint6_linear_1_349)"/>
<path fill-rule="evenodd" clip-rule="evenodd" d="M260.592 19.3869C262.513 19.3869 264.17 19.8092 265.574 20.6431C266.973 21.477 268.056 22.6591 268.821 24.1844C269.587 25.7097 269.966 27.5466 269.966 29.6841V30.792H256.011C256.117 32.4388 256.518 33.7428 257.215 34.7034C258.038 35.8382 259.225 36.4031 260.777 36.4031C261.885 36.4031 262.814 36.1445 263.564 35.6274C264.313 35.1154 264.836 34.3231 265.132 33.2675H270.114C269.571 35.553 268.472 37.2947 266.81 38.4876C265.152 39.6804 263.141 40.2777 260.777 40.2777C258.809 40.2777 257.099 39.8553 255.647 39.0216C254.196 38.1823 253.082 36.9837 252.306 35.4213C251.53 33.8591 251.144 32.1069 251.144 29.8691C251.144 27.6313 251.53 25.731 252.306 24.1687C253.081 22.6064 254.184 21.4181 255.609 20.6052C257.034 19.7925 258.671 19.387 260.592 19.3869ZM260.587 23.2657C259.088 23.2658 257.943 23.8361 257.157 24.9654C256.639 25.7044 256.296 26.6654 256.116 27.8425H265.026C264.852 26.6602 264.509 25.6939 263.981 24.9444C263.194 23.8255 262.086 23.2657 260.587 23.2657Z" fill="url(#paint7_linear_1_349)"/>
<path d="M300.622 19.1126C302.147 19.1126 303.509 19.3597 304.718 19.8505C305.921 20.3414 306.924 21.1023 307.726 22.1368C308.523 23.1713 309.009 24.5118 309.183 26.1585H304.459C304.264 24.9551 303.826 24.0941 303.15 23.5769C302.475 23.0597 301.567 22.8011 300.437 22.8011C299.503 22.8011 298.769 23.0127 298.241 23.4297C297.714 23.8519 297.45 24.369 297.45 24.9812C297.45 25.6461 297.671 26.1529 298.114 26.4959C298.558 26.839 299.155 27.1027 299.904 27.2875C300.654 27.4721 301.471 27.6306 302.358 27.7678C303.239 27.8998 304.126 28.0791 305.013 28.3008C305.9 28.5225 306.713 28.8289 307.452 29.2248C308.191 29.6206 308.787 30.1647 309.241 30.8509C309.695 31.537 309.922 32.4606 309.922 33.6165C309.922 34.8672 309.563 35.9756 308.835 36.9361C308.107 37.8966 307.119 38.6461 305.863 39.1898C304.607 39.7334 303.145 40.0033 301.472 40.0034C299.038 40.0034 297.001 39.4332 295.364 38.2879C293.728 37.1478 292.736 35.3788 292.393 32.9932H297.117C297.286 34.0486 297.771 34.8723 298.574 35.4634C299.376 36.0545 300.443 36.3506 301.62 36.3506C302.797 36.3505 303.683 36.1232 304.274 35.6694C304.865 35.2155 305.161 34.6297 305.161 33.9171C305.161 33.2733 304.939 32.7823 304.496 32.4392C304.052 32.0962 303.467 31.8376 302.743 31.6634C302.02 31.4893 301.218 31.3308 300.347 31.1831C299.471 31.0353 298.605 30.8612 297.745 30.6501C296.885 30.439 296.087 30.1326 295.364 29.7262C294.641 29.3198 294.055 28.766 293.612 28.0643C293.169 27.3623 292.948 26.4325 292.948 25.2766C292.948 24.1947 293.232 23.1917 293.797 22.2682C294.362 21.3446 295.212 20.5898 296.341 19.9987C297.47 19.4076 298.902 19.1126 300.622 19.1126Z" fill="url(#paint8_linear_1_349)"/>
<path d="M39.8923 39.729H34.9098V14.6315H39.8923V39.729Z" fill="url(#paint9_linear_1_349)"/>
<path d="M119.793 39.729H115.069V19.9462H119.793V39.729Z" fill="url(#paint10_linear_1_349)"/>
<path d="M208.244 32.271L208.999 35.0261L209.759 32.271L216.251 14.6315H221.233L211.785 39.729H205.959L196.468 14.6315H201.747L208.244 32.271Z" fill="url(#paint11_linear_1_349)"/>
<path d="M228.101 39.729H223.377V19.9462H228.101V39.729Z" fill="url(#paint12_linear_1_349)"/>
<path d="M54.6495 19.3922C55.9795 19.3922 57.1408 19.656 58.1383 20.1837H58.1331C59.1306 20.7115 59.9072 21.508 60.4614 22.5635C61.0156 23.6191 61.2897 24.9494 61.2897 26.5485V39.7227H56.5658V27.5093C56.5658 26.6016 56.4396 25.831 56.1811 25.203C55.9224 24.5749 55.5368 24.1049 55.0195 23.7829C54.5023 23.4609 53.8372 23.3025 53.0244 23.3025C52.3858 23.3025 51.7999 23.4297 51.2721 23.6883C50.7443 23.9469 50.2951 24.3002 49.9256 24.7594C49.5562 25.2186 49.2715 25.7471 49.0763 26.3488C48.8811 26.9503 48.7809 27.5834 48.7809 28.2482V39.728H44.057V19.9462H48.7809V22.6329C49.3668 21.6617 50.1006 20.9008 50.9768 20.3677C52.048 19.7187 53.3198 19.3923 54.6495 19.3922Z" fill="url(#paint13_linear_1_349)"/>
<path d="M102.666 39.7237H97.9416V13.1536H102.666V39.7237Z" fill="url(#paint14_linear_1_349)"/>
<path d="M111.226 39.7237H106.502V13.1536H111.226V39.7237Z" fill="url(#paint15_linear_1_349)"/>
<path d="M175.878 19.3922C177.208 19.3922 178.369 19.656 179.367 20.1837L179.361 20.1785C180.359 20.7063 181.135 21.5027 181.69 22.5583C182.244 23.6138 182.518 24.9441 182.518 26.5432V39.7174H177.794V27.504C177.794 26.5964 177.668 25.8258 177.409 25.1978C177.151 24.5697 176.765 24.0996 176.248 23.7776C175.731 23.4557 175.065 23.2973 174.253 23.2973C173.614 23.2973 173.028 23.4244 172.5 23.683C171.973 23.9417 171.523 24.295 171.154 24.7542C170.785 25.2132 170.5 25.741 170.305 26.3425C170.109 26.9441 170.009 27.578 170.009 28.243V39.7227H165.285V19.9409H170.009V22.6329C170.595 21.6617 171.329 20.9008 172.205 20.3677C173.276 19.7187 174.548 19.3923 175.878 19.3922Z" fill="url(#paint16_linear_1_349)"/>
<path d="M116.829 12.7016C118.23 12.3708 119.635 13.2394 119.966 14.6409C120.296 16.0424 119.429 17.4468 118.027 17.7776C116.626 18.1083 115.221 17.2397 114.891 15.8382C114.56 14.4369 115.428 13.0325 116.829 12.7016Z" fill="url(#paint17_linear_1_349)"/>
<path d="M225.735 12.6248C227.175 12.6248 228.343 13.7927 228.343 15.2327C228.343 16.6728 227.175 17.8396 225.735 17.8396C224.295 17.8396 223.129 16.6727 223.129 15.2327C223.129 13.7928 224.295 12.6249 225.735 12.6248Z" fill="url(#paint18_linear_1_349)"/>
<path d="M6.66079 11.839C8.33924 11.839 9.83293 12.895 10.3924 14.4784L16.2831 31.1572C16.4416 31.6108 17.0854 31.6161 17.2544 31.1625L24.396 11.839H31.1255L22.2684 35.8601C21.4291 38.1823 19.2335 39.7284 16.7635 39.7284C14.2935 39.7284 12.0926 38.1823 11.2586 35.8601L6.66079 23.0969V39.7284H-0.00041572V11.839H6.66079Z" fill="#2EADF9"/>
<path d="M1.31879 1.32001C3.0791 -0.44023 5.9338 -0.440268 7.69408 1.32001C9.45424 3.08031 9.45428 5.93504 7.69408 7.69531C5.93382 9.45556 3.0791 9.45548 1.31879 7.69531C-0.44151 5.935 -0.44151 3.08031 1.31879 1.32001Z" fill="#2EADF9"/>
<path d="M145.312 57.0486V46.8599H146.691V57.0486H145.312ZM154.542 57.0486V46.8599H155.921V57.0486H154.542ZM151.096 57.0486H150.122L147.395 50.5158L146.077 46.8599H147.215L150.347 54.3366L150.751 55.5652H150.542L150.961 54.3366L154.078 46.8599H155.142L153.823 50.5308L151.096 57.0486Z" fill="#E8F5FD"/>
<path d="M161.079 57.2284C160.32 57.2284 159.665 57.0635 159.116 56.7339C158.577 56.4043 158.162 55.9298 157.872 55.3105C157.583 54.6812 157.438 53.937 157.438 53.078C157.438 52.179 157.583 51.4198 157.872 50.8005C158.172 50.1812 158.597 49.7117 159.146 49.3921C159.695 49.0624 160.34 48.8976 161.079 48.8976C161.838 48.8976 162.487 49.0674 163.027 49.4071C163.576 49.7367 163.996 50.2162 164.285 50.8455C164.575 51.4648 164.72 52.2089 164.72 53.078C164.72 53.967 164.57 54.7211 164.27 55.3405C163.981 55.9598 163.561 56.4292 163.012 56.7489C162.472 57.0685 161.828 57.2284 161.079 57.2284ZM161.079 56.0896C161.818 56.0896 162.382 55.8299 162.772 55.3105C163.172 54.7911 163.371 54.0469 163.371 53.078C163.371 52.1091 163.172 51.3599 162.772 50.8305C162.382 50.3011 161.818 50.0364 161.079 50.0364C160.34 50.0364 159.77 50.3011 159.371 50.8305C158.981 51.3499 158.786 52.0991 158.786 53.078C158.786 54.0369 158.986 54.7811 159.386 55.3105C159.785 55.8299 160.35 56.0896 161.079 56.0896Z" fill="#E8F5FD"/>
<path d="M166.117 57.0486V49.0924H167.436V57.0486H166.117ZM167.436 52.5985H166.836C166.896 51.7395 167.061 51.0402 167.331 50.5008C167.611 49.9515 167.96 49.5469 168.38 49.2872C168.809 49.0275 169.279 48.8976 169.788 48.8976C169.948 48.8976 170.093 48.9176 170.223 48.9576C170.362 48.9875 170.467 49.0325 170.537 49.0924V50.2761C170.427 50.2361 170.303 50.2112 170.163 50.2012C170.023 50.1812 169.873 50.1712 169.713 50.1712C169.314 50.1712 168.969 50.2311 168.679 50.351C168.4 50.4609 168.165 50.6257 167.975 50.8455C167.795 51.0652 167.66 51.3249 167.571 51.6246C167.481 51.9143 167.436 52.2389 167.436 52.5985Z" fill="#E8F5FD"/>
<path d="M177.494 52.3138L176.745 53.018C176.745 52.0691 176.545 51.3349 176.145 50.8155C175.756 50.2961 175.201 50.0364 174.482 50.0364C173.743 50.0364 173.179 50.3011 172.789 50.8305C172.399 51.3499 172.205 52.0991 172.205 53.078C172.205 54.0369 172.409 54.7811 172.819 55.3105C173.229 55.8299 173.808 56.0896 174.557 56.0896C175.116 56.0896 175.586 55.9548 175.965 55.6851C176.355 55.4154 176.62 55.0058 176.76 54.4564H178.138C177.918 55.3854 177.489 56.0796 176.849 56.5391C176.22 56.9986 175.456 57.2284 174.557 57.2284C173.788 57.2284 173.124 57.0635 172.564 56.7339C172.015 56.4043 171.59 55.9298 171.291 55.3105C171.001 54.6812 170.856 53.937 170.856 53.078C170.856 52.179 171.001 51.4198 171.291 50.8005C171.59 50.1812 172.01 49.7117 172.549 49.3921C173.099 49.0624 173.743 48.8976 174.482 48.8976C175.231 48.8976 175.871 49.0624 176.4 49.3921C176.939 49.7217 177.354 50.1912 177.644 50.8005C177.933 51.3998 178.078 52.124 178.078 52.9731V53.3027H171.411V52.3138H177.494Z" fill="#E8F5FD"/>
<path d="M182.355 57.0486V46.8599H183.734V57.0486H182.355ZM189.068 57.0486V46.8599H190.446V57.0486H189.068ZM183.344 52.3588V51.235H189.338V52.3588H183.344Z" fill="#E8F5FD"/>
<path d="M198.751 49.0924V57.0486H197.433V49.0924H198.751ZM197.433 53.7972H198.062C198.022 54.5563 197.867 55.1906 197.598 55.7001C197.328 56.2095 196.973 56.5941 196.534 56.8538C196.094 57.1035 195.59 57.2284 195.021 57.2284C194.471 57.2284 193.997 57.1235 193.597 56.9137C193.198 56.694 192.893 56.3743 192.683 55.9548C192.473 55.5352 192.368 55.0208 192.368 54.4115V49.0924H193.687V54.1418C193.687 54.5413 193.747 54.891 193.867 55.1906C193.987 55.4803 194.171 55.7051 194.421 55.8649C194.671 56.0247 194.991 56.1046 195.38 56.1046C195.7 56.1046 195.984 56.0397 196.234 55.9098C196.494 55.78 196.709 55.6052 196.878 55.3854C197.058 55.1557 197.193 54.9059 197.283 54.6362C197.383 54.3566 197.433 54.0769 197.433 53.7972Z" fill="#E8F5FD"/>
<path d="M200.555 57.0486V49.0924H201.874V57.0486H200.555ZM201.874 52.3438H201.245C201.295 51.5846 201.444 50.9503 201.694 50.4409C201.944 49.9315 202.279 49.5469 202.698 49.2872C203.128 49.0275 203.612 48.8976 204.151 48.8976C204.681 48.8976 205.13 49.0075 205.5 49.2273C205.88 49.437 206.169 49.7517 206.369 50.1712C206.569 50.5907 206.669 51.1102 206.669 51.7295V57.0486H205.35V51.9992C205.35 51.5996 205.295 51.255 205.185 50.9653C205.075 50.6657 204.906 50.4359 204.676 50.2761C204.446 50.1063 204.151 50.0214 203.792 50.0214C203.492 50.0214 203.222 50.0913 202.983 50.2311C202.753 50.361 202.553 50.5358 202.383 50.7556C202.214 50.9753 202.084 51.225 201.994 51.5047C201.914 51.7744 201.874 52.0541 201.874 52.3438ZM206.669 52.3438H205.89C205.939 51.5846 206.094 50.9503 206.354 50.4409C206.614 49.9315 206.958 49.5469 207.388 49.2872C207.817 49.0275 208.312 48.8976 208.871 48.8976C209.411 48.8976 209.875 49.0075 210.265 49.2273C210.654 49.437 210.949 49.7517 211.149 50.1712C211.358 50.5907 211.463 51.1102 211.463 51.7295V57.0486H210.145V51.9992C210.145 51.5996 210.09 51.255 209.98 50.9653C209.87 50.6657 209.7 50.4359 209.471 50.2761C209.241 50.1063 208.946 50.0214 208.587 50.0214C208.287 50.0214 208.017 50.0913 207.777 50.2311C207.548 50.361 207.348 50.5358 207.178 50.7556C207.008 50.9753 206.878 51.225 206.789 51.5047C206.709 51.7744 206.669 52.0541 206.669 52.3438Z" fill="#E8F5FD"/>
<path d="M214.477 51.6845H213.159C213.249 51.0952 213.434 50.5957 213.713 50.1862C213.993 49.7667 214.368 49.447 214.837 49.2273C215.307 49.0075 215.866 48.8976 216.515 48.8976C217.224 48.8976 217.814 49.0275 218.283 49.2872C218.753 49.5469 219.102 49.9115 219.332 50.381C219.562 50.8405 219.677 51.3799 219.677 51.9992V55.1307C219.677 55.5902 219.697 55.9698 219.737 56.2694C219.787 56.5691 219.861 56.8288 219.961 57.0486H218.568C218.468 56.8488 218.408 56.5991 218.388 56.2994C218.368 55.9997 218.358 55.7051 218.358 55.4154V52.0291C218.358 51.3899 218.198 50.9004 217.879 50.5608C217.569 50.2112 217.075 50.0364 216.395 50.0364C215.826 50.0364 215.381 50.1862 215.062 50.4859C214.752 50.7755 214.557 51.1751 214.477 51.6845ZM218.553 52.2089V53.1978C217.664 53.1978 216.935 53.2428 216.365 53.3327C215.806 53.4126 215.371 53.5325 215.062 53.6923C214.752 53.8421 214.537 54.0219 214.418 54.2317C214.298 54.4415 214.238 54.6712 214.238 54.9209C214.238 55.2905 214.378 55.5802 214.657 55.79C214.947 55.9897 215.321 56.0896 215.781 56.0896C216.27 56.0896 216.71 55.9748 217.1 55.745C217.489 55.5153 217.794 55.2106 218.014 54.831C218.243 54.4415 218.358 54.0219 218.358 53.5724H219.062C219.022 54.2217 218.893 54.7811 218.673 55.2506C218.463 55.71 218.188 56.0846 217.849 56.3743C217.519 56.664 217.164 56.8787 216.785 57.0186C216.405 57.1584 216.026 57.2284 215.646 57.2284C215.097 57.2284 214.612 57.1435 214.193 56.9736C213.783 56.8038 213.464 56.5491 213.234 56.2095C213.004 55.8699 212.889 55.4503 212.889 54.9509C212.889 54.4015 213.034 53.937 213.324 53.5574C213.623 53.1679 214.068 52.8732 214.657 52.6734C215.217 52.4836 215.801 52.3588 216.41 52.2988C217.02 52.2389 217.734 52.2089 218.553 52.2089Z" fill="#E8F5FD"/>
<path d="M221.539 57.0486V49.0924H222.857V57.0486H221.539ZM222.857 52.3438H222.228C222.278 51.5846 222.433 50.9503 222.692 50.4409C222.962 49.9315 223.322 49.5469 223.771 49.2872C224.221 49.0275 224.735 48.8976 225.314 48.8976C225.884 48.8976 226.368 49.0075 226.768 49.2273C227.167 49.437 227.472 49.7517 227.682 50.1712C227.901 50.5907 228.011 51.1102 228.011 51.7295V57.0486H226.693V51.9992C226.693 51.5996 226.628 51.255 226.498 50.9653C226.378 50.6657 226.188 50.4359 225.929 50.2761C225.679 50.1063 225.354 50.0214 224.955 50.0214C224.625 50.0214 224.33 50.0913 224.071 50.2311C223.811 50.361 223.591 50.5358 223.411 50.7556C223.232 50.9753 223.092 51.225 222.992 51.5047C222.902 51.7744 222.857 52.0541 222.857 52.3438Z" fill="#E8F5FD"/>
<path d="M232.693 54.7561V47.2644H234.012V54.7561C234.012 55.2356 234.106 55.5902 234.296 55.8199C234.496 56.0497 234.886 56.1645 235.465 56.1645H235.735V57.1085C235.665 57.1484 235.55 57.1784 235.39 57.1984C235.24 57.2184 235.07 57.2284 234.881 57.2284C234.141 57.2284 233.592 57.0286 233.232 56.629C232.873 56.2195 232.693 55.5952 232.693 54.7561ZM231.584 50.1412V49.0924H235.765V50.1412H231.584Z" fill="#E8F5FD"/>
<path d="M236.72 57.0486V46.2606H238.039V57.0486H236.72ZM238.039 52.3438H237.41C237.459 51.5846 237.614 50.9503 237.874 50.4409C238.144 49.9315 238.503 49.5469 238.953 49.2872C239.402 49.0275 239.917 48.8976 240.496 48.8976C241.065 48.8976 241.55 49.0075 241.95 49.2273C242.349 49.437 242.654 49.7517 242.863 50.1712C243.083 50.5907 243.193 51.1102 243.193 51.7295V57.0486H241.875V51.9992C241.875 51.5996 241.81 51.255 241.68 50.9653C241.56 50.6657 241.37 50.4359 241.11 50.2761C240.861 50.1063 240.536 50.0214 240.137 50.0214C239.807 50.0214 239.512 50.0913 239.252 50.2311C238.993 50.361 238.773 50.5358 238.593 50.7556C238.413 50.9753 238.274 51.225 238.174 51.5047C238.084 51.7744 238.039 52.0541 238.039 52.3438Z" fill="#E8F5FD"/>
<path d="M246.209 51.6845H244.89C244.98 51.0952 245.165 50.5957 245.445 50.1862C245.724 49.7667 246.099 49.447 246.568 49.2273C247.038 49.0075 247.597 48.8976 248.246 48.8976C248.956 48.8976 249.545 49.0275 250.015 49.2872C250.484 49.5469 250.834 49.9115 251.063 50.381C251.293 50.8405 251.408 51.3799 251.408 51.9992V55.1307C251.408 55.5902 251.428 55.9698 251.468 56.2694C251.518 56.5691 251.593 56.8288 251.693 57.0486H250.299C250.199 56.8488 250.139 56.5991 250.119 56.2994C250.099 55.9997 250.089 55.7051 250.089 55.4154V52.0291C250.089 51.3899 249.93 50.9004 249.61 50.5608C249.3 50.2112 248.806 50.0364 248.127 50.0364C247.557 50.0364 247.113 50.1862 246.793 50.4859C246.483 50.7755 246.289 51.1751 246.209 51.6845ZM250.284 52.2089V53.1978C249.395 53.1978 248.666 53.2428 248.097 53.3327C247.537 53.4126 247.103 53.5325 246.793 53.6923C246.483 53.8421 246.269 54.0219 246.149 54.2317C246.029 54.4415 245.969 54.6712 245.969 54.9209C245.969 55.2905 246.109 55.5802 246.389 55.79C246.678 55.9897 247.053 56.0896 247.512 56.0896C248.002 56.0896 248.441 55.9748 248.831 55.745C249.22 55.5153 249.525 55.2106 249.745 54.831C249.975 54.4415 250.089 54.0219 250.089 53.5724H250.794C250.754 54.2217 250.624 54.7811 250.404 55.2506C250.194 55.71 249.92 56.0846 249.58 56.3743C249.25 56.664 248.896 56.8787 248.516 57.0186C248.137 57.1584 247.757 57.2284 247.377 57.2284C246.828 57.2284 246.344 57.1435 245.924 56.9736C245.515 56.8038 245.195 56.5491 244.965 56.2095C244.735 55.8699 244.621 55.4503 244.621 54.9509C244.621 54.4015 244.765 53.937 245.055 53.5574C245.355 53.1679 245.799 52.8732 246.389 52.6734C246.948 52.4836 247.532 52.3588 248.142 52.2988C248.751 52.2389 249.465 52.2089 250.284 52.2089Z" fill="#E8F5FD"/>
<path d="M253.27 57.0486V49.0924H254.588V57.0486H253.27ZM254.588 52.3438H253.959C254.009 51.5846 254.164 50.9503 254.424 50.4409C254.693 49.9315 255.053 49.5469 255.502 49.2872C255.952 49.0275 256.466 48.8976 257.046 48.8976C257.615 48.8976 258.099 49.0075 258.499 49.2273C258.899 49.437 259.203 49.7517 259.413 50.1712C259.633 50.5907 259.743 51.1102 259.743 51.7295V57.0486H258.424V51.9992C258.424 51.5996 258.359 51.255 258.229 50.9653C258.109 50.6657 257.92 50.4359 257.66 50.2761C257.41 50.1063 257.086 50.0214 256.686 50.0214C256.356 50.0214 256.062 50.0913 255.802 50.2311C255.542 50.361 255.323 50.5358 255.143 50.7556C254.963 50.9753 254.823 51.225 254.723 51.5047C254.633 51.7744 254.588 52.0541 254.588 52.3438Z" fill="#E8F5FD"/>
<path d="M264.364 57.0486V46.8599H265.743V57.0486H264.364ZM271.077 57.0486V46.8599H272.455V57.0486H271.077ZM265.353 52.3588V51.235H271.347V52.3588H265.353Z" fill="#E8F5FD"/>
<path d="M280.761 49.0924V57.0486H279.442V49.0924H280.761ZM279.442 53.7972H280.071C280.031 54.5563 279.877 55.1906 279.607 55.7001C279.337 56.2095 278.983 56.5941 278.543 56.8538C278.104 57.1035 277.599 57.2284 277.03 57.2284C276.48 57.2284 276.006 57.1235 275.606 56.9137C275.207 56.694 274.902 56.3743 274.692 55.9548C274.483 55.5352 274.378 55.0208 274.378 54.4115V49.0924H275.696V54.1418C275.696 54.5413 275.756 54.891 275.876 55.1906C275.996 55.4803 276.181 55.7051 276.43 55.8649C276.68 56.0247 277 56.1046 277.389 56.1046C277.709 56.1046 277.994 56.0397 278.243 55.9098C278.503 55.78 278.718 55.6052 278.888 55.3854C279.067 55.1557 279.202 54.9059 279.292 54.6362C279.392 54.3566 279.442 54.0769 279.442 53.7972Z" fill="#E8F5FD"/>
<path d="M282.565 57.0486V49.0924H283.883V57.0486H282.565ZM283.883 52.3438H283.254C283.304 51.5846 283.454 50.9503 283.703 50.4409C283.953 49.9315 284.288 49.5469 284.707 49.2872C285.137 49.0275 285.621 48.8976 286.161 48.8976C286.69 48.8976 287.14 49.0075 287.509 49.2273C287.889 49.437 288.178 49.7517 288.378 50.1712C288.578 50.5907 288.678 51.1102 288.678 51.7295V57.0486H287.359V51.9992C287.359 51.5996 287.304 51.255 287.194 50.9653C287.085 50.6657 286.915 50.4359 286.685 50.2761C286.455 50.1063 286.161 50.0214 285.801 50.0214C285.501 50.0214 285.232 50.0913 284.992 50.2311C284.762 50.361 284.562 50.5358 284.393 50.7556C284.223 50.9753 284.093 51.225 284.003 51.5047C283.923 51.7744 283.883 52.0541 283.883 52.3438ZM288.678 52.3438H287.899C287.949 51.5846 288.103 50.9503 288.363 50.4409C288.623 49.9315 288.967 49.5469 289.397 49.2872C289.827 49.0275 290.321 48.8976 290.88 48.8976C291.42 48.8976 291.884 49.0075 292.274 49.2273C292.663 49.437 292.958 49.7517 293.158 50.1712C293.368 50.5907 293.472 51.1102 293.472 51.7295V57.0486H292.154V51.9992C292.154 51.5996 292.099 51.255 291.989 50.9653C291.879 50.6657 291.709 50.4359 291.48 50.2761C291.25 50.1063 290.955 50.0214 290.596 50.0214C290.296 50.0214 290.026 50.0913 289.787 50.2311C289.557 50.361 289.357 50.5358 289.187 50.7556C289.017 50.9753 288.888 51.225 288.798 51.5047C288.718 51.7744 288.678 52.0541 288.678 52.3438Z" fill="#E8F5FD"/>
<path d="M296.487 51.6845H295.168C295.258 51.0952 295.443 50.5957 295.722 50.1862C296.002 49.7667 296.377 49.447 296.846 49.2273C297.316 49.0075 297.875 48.8976 298.524 48.8976C299.234 48.8976 299.823 49.0275 300.292 49.2872C300.762 49.5469 301.111 49.9115 301.341 50.381C301.571 50.8405 301.686 51.3799 301.686 51.9992V55.1307C301.686 55.5902 301.706 55.9698 301.746 56.2694C301.796 56.5691 301.871 56.8288 301.971 57.0486H300.577C300.477 56.8488 300.417 56.5991 300.397 56.2994C300.377 55.9997 300.367 55.7051 300.367 55.4154V52.0291C300.367 51.3899 300.207 50.9004 299.888 50.5608C299.578 50.2112 299.084 50.0364 298.404 50.0364C297.835 50.0364 297.391 50.1862 297.071 50.4859C296.761 50.7755 296.567 51.1751 296.487 51.6845ZM300.562 52.2089V53.1978C299.673 53.1978 298.944 53.2428 298.374 53.3327C297.815 53.4126 297.381 53.5325 297.071 53.6923C296.761 53.8421 296.547 54.0219 296.427 54.2317C296.307 54.4415 296.247 54.6712 296.247 54.9209C296.247 55.2905 296.387 55.5802 296.666 55.79C296.956 55.9897 297.331 56.0896 297.79 56.0896C298.28 56.0896 298.719 55.9748 299.109 55.745C299.498 55.5153 299.803 55.2106 300.023 54.831C300.252 54.4415 300.367 54.0219 300.367 53.5724H301.072C301.032 54.2217 300.902 54.7811 300.682 55.2506C300.472 55.71 300.197 56.0846 299.858 56.3743C299.528 56.664 299.174 56.8787 298.794 57.0186C298.414 57.1584 298.035 57.2284 297.655 57.2284C297.106 57.2284 296.621 57.1435 296.202 56.9736C295.792 56.8038 295.473 56.5491 295.243 56.2095C295.013 55.8699 294.898 55.4503 294.898 54.9509C294.898 54.4015 295.043 53.937 295.333 53.5574C295.633 53.1679 296.077 52.8732 296.666 52.6734C297.226 52.4836 297.81 52.3588 298.419 52.2988C299.029 52.2389 299.743 52.2089 300.562 52.2089Z" fill="#E8F5FD"/>
<path d="M303.548 57.0486V49.0924H304.866V57.0486H303.548ZM304.866 52.3438H304.237C304.287 51.5846 304.442 50.9503 304.701 50.4409C304.971 49.9315 305.331 49.5469 305.78 49.2872C306.23 49.0275 306.744 48.8976 307.324 48.8976C307.893 48.8976 308.377 49.0075 308.777 49.2273C309.176 49.437 309.481 49.7517 309.691 50.1712C309.911 50.5907 310.021 51.1102 310.021 51.7295V57.0486H308.702V51.9992C308.702 51.5996 308.637 51.255 308.507 50.9653C308.387 50.6657 308.198 50.4359 307.938 50.2761C307.688 50.1063 307.363 50.0214 306.964 50.0214C306.634 50.0214 306.34 50.0913 306.08 50.2311C305.82 50.361 305.6 50.5358 305.421 50.7556C305.241 50.9753 305.101 51.225 305.001 51.5047C304.911 51.7744 304.866 52.0541 304.866 52.3438Z" fill="#E8F5FD"/>
</g>
<defs>
<linearGradient id="paint0_linear_1_349" x1="34.9098" y1="30.5282" x2="309.922" y2="30.5282" gradientUnits="userSpaceOnUse">
<stop stop-color="#E9F5FD"/>
<stop offset="1" stop-color="#2EADF9"/>
</linearGradient>
<linearGradient id="paint1_linear_1_349" x1="34.9098" y1="30.5282" x2="309.922" y2="30.5282" gradientUnits="userSpaceOnUse">
<stop stop-color="#E9F5FD"/>
<stop offset="1" stop-color="#2EADF9"/>
</linearGradient>
<linearGradient id="paint2_linear_1_349" x1="34.9098" y1="30.5282" x2="309.922" y2="30.5282" gradientUnits="userSpaceOnUse">
<stop stop-color="#E9F5FD"/>
<stop offset="1" stop-color="#2EADF9"/>
</linearGradient>
<linearGradient id="paint3_linear_1_349" x1="34.9098" y1="30.5282" x2="309.922" y2="30.5282" gradientUnits="userSpaceOnUse">
<stop stop-color="#E9F5FD"/>
<stop offset="1" stop-color="#2EADF9"/>
</linearGradient>
<linearGradient id="paint4_linear_1_349" x1="34.9098" y1="30.5282" x2="309.922" y2="30.5282" gradientUnits="userSpaceOnUse">
<stop stop-color="#E9F5FD"/>
<stop offset="1" stop-color="#2EADF9"/>
</linearGradient>
<linearGradient id="paint5_linear_1_349" x1="34.9098" y1="30.5282" x2="309.922" y2="30.5282" gradientUnits="userSpaceOnUse">
<stop stop-color="#E9F5FD"/>
<stop offset="1" stop-color="#2EADF9"/>
</linearGradient>
<linearGradient id="paint6_linear_1_349" x1="34.9098" y1="30.5282" x2="309.922" y2="30.5282" gradientUnits="userSpaceOnUse">
<stop stop-color="#E9F5FD"/>
<stop offset="1" stop-color="#2EADF9"/>
</linearGradient>
<linearGradient id="paint7_linear_1_349" x1="34.9098" y1="30.5282" x2="309.922" y2="30.5282" gradientUnits="userSpaceOnUse">
<stop stop-color="#E9F5FD"/>
<stop offset="1" stop-color="#2EADF9"/>
</linearGradient>
<linearGradient id="paint8_linear_1_349" x1="34.9098" y1="30.5282" x2="309.922" y2="30.5282" gradientUnits="userSpaceOnUse">
<stop stop-color="#E9F5FD"/>
<stop offset="1" stop-color="#2EADF9"/>
</linearGradient>
<linearGradient id="paint9_linear_1_349" x1="34.9098" y1="30.5282" x2="309.922" y2="30.5282" gradientUnits="userSpaceOnUse">
<stop stop-color="#E9F5FD"/>
<stop offset="1" stop-color="#2EADF9"/>
</linearGradient>
<linearGradient id="paint10_linear_1_349" x1="34.9098" y1="30.5282" x2="309.922" y2="30.5282" gradientUnits="userSpaceOnUse">
<stop stop-color="#E9F5FD"/>
<stop offset="1" stop-color="#2EADF9"/>
</linearGradient>
<linearGradient id="paint11_linear_1_349" x1="34.9098" y1="30.5282" x2="309.922" y2="30.5282" gradientUnits="userSpaceOnUse">
<stop stop-color="#E9F5FD"/>
<stop offset="1" stop-color="#2EADF9"/>
</linearGradient>
<linearGradient id="paint12_linear_1_349" x1="34.9098" y1="30.5282" x2="309.922" y2="30.5282" gradientUnits="userSpaceOnUse">
<stop stop-color="#E9F5FD"/>
<stop offset="1" stop-color="#2EADF9"/>
</linearGradient>
<linearGradient id="paint13_linear_1_349" x1="34.9098" y1="30.5282" x2="309.922" y2="30.5282" gradientUnits="userSpaceOnUse">
<stop stop-color="#E9F5FD"/>
<stop offset="1" stop-color="#2EADF9"/>
</linearGradient>
<linearGradient id="paint14_linear_1_349" x1="34.9098" y1="30.5282" x2="309.922" y2="30.5282" gradientUnits="userSpaceOnUse">
<stop stop-color="#E9F5FD"/>
<stop offset="1" stop-color="#2EADF9"/>
</linearGradient>
<linearGradient id="paint15_linear_1_349" x1="34.9098" y1="30.5282" x2="309.922" y2="30.5282" gradientUnits="userSpaceOnUse">
<stop stop-color="#E9F5FD"/>
<stop offset="1" stop-color="#2EADF9"/>
</linearGradient>
<linearGradient id="paint16_linear_1_349" x1="34.9098" y1="30.5282" x2="309.922" y2="30.5282" gradientUnits="userSpaceOnUse">
<stop stop-color="#E9F5FD"/>
<stop offset="1" stop-color="#2EADF9"/>
</linearGradient>
<linearGradient id="paint17_linear_1_349" x1="34.9098" y1="30.5282" x2="309.922" y2="30.5282" gradientUnits="userSpaceOnUse">
<stop stop-color="#E9F5FD"/>
<stop offset="1" stop-color="#2EADF9"/>
</linearGradient>
<linearGradient id="paint18_linear_1_349" x1="34.9098" y1="30.5282" x2="309.922" y2="30.5282" gradientUnits="userSpaceOnUse">
<stop stop-color="#E9F5FD"/>
<stop offset="1" stop-color="#2EADF9"/>
</linearGradient>
<clipPath id="clip0_1_349">
<rect width="310" height="58.125" fill="white"/>
</clipPath>
</defs>
</svg>
